<svg xmlns="http://www.w3.org/2000/svg" width="1200" height="675" viewBox="0 0 1200 675">
  <defs>
    <linearGradient id="g" x1="0" y1="0" x2="1" y2="1">
      <stop offset="0" stop-color="#00b368"/>
      <stop offset="0.55" stop-color="#008751"/>
      <stop offset="1" stop-color="#e8a020"/>
    </linearGradient>
    <filter id="s" x="-20%" y="-20%" width="140%" height="140%">
      <feDropShadow dx="0" dy="12" stdDeviation="18" flood-color="#000" flood-opacity="0.35"/>
    </filter>
  </defs>
  <rect width="1200" height="675" fill="#141714"/>
  <rect x="-80" y="-120" width="1360" height="920" rx="60" fill="url(#g)" opacity="0.22"/>
  <g filter="url(#s)">
    <rect x="86" y="92" width="1028" height="491" rx="22" fill="#1d211b" stroke="#2c312a"/>
    <rect x="120" y="128" width="420" height="20" rx="10" fill="#2c312a"/>
    <rect x="120" y="168" width="320" height="12" rx="6" fill="#2c312a" opacity="0.8"/>
    <rect x="120" y="216" width="950" height="1" fill="#2c312a"/>
    <g transform="translate(120 260)">
      <circle cx="44" cy="44" r="44" fill="#005c37"/>
      <path d="M44 22c18 0 28 9 28 26S62 74 44 74 16 65 16 48 26 22 44 22z" fill="#f8f7f2" opacity="0.9"/>
      <rect x="112" y="18" width="430" height="16" rx="8" fill="#f8f7f2" opacity="0.92"/>
      <rect x="112" y="44" width="350" height="12" rx="6" fill="#f8f7f2" opacity="0.7"/>
      <rect x="112" y="72" width="260" height="12" rx="6" fill="#f8f7f2" opacity="0.55"/>
    </g>
    <g transform="translate(120 390)">
      <rect x="0" y="0" width="300" height="150" rx="16" fill="#232820" stroke="#2c312a"/>
      <rect x="22" y="24" width="256" height="14" rx="7" fill="#f8f7f2" opacity="0.75"/>
      <rect x="22" y="54" width="160" height="10" rx="5" fill="#f8f7f2" opacity="0.55"/>
      <rect x="22" y="82" width="200" height="10" rx="5" fill="#f8f7f2" opacity="0.55"/>
      <rect x="22" y="110" width="130" height="10" rx="5" fill="#f8f7f2" opacity="0.55"/>
    </g>
    <g transform="translate(452 390)">
      <rect x="0" y="0" width="618" height="150" rx="16" fill="#232820" stroke="#2c312a"/>
      <rect x="22" y="24" width="420" height="14" rx="7" fill="#f8f7f2" opacity="0.75"/>
      <g transform="translate(22 62)">
        <rect x="0" y="0" width="520" height="8" rx="4" fill="#2c312a"/>
        <rect x="0" y="0" width="380" height="8" rx="4" fill="#00b368"/>
        <rect x="0" y="22" width="520" height="8" rx="4" fill="#2c312a"/>
        <rect x="0" y="22" width="310" height="8" rx="4" fill="#e8a020"/>
        <rect x="0" y="44" width="520" height="8" rx="4" fill="#2c312a"/>
        <rect x="0" y="44" width="420" height="8" rx="4" fill="#00b368" opacity="0.85"/>
      </g>
    </g>
  </g>
  <g font-family="system-ui, -apple-system, Segoe UI, Roboto, Arial" fill="#f8f7f2">
    <text x="120" y="622" font-size="34" font-weight="700">evote.ng</text>
    <text x="285" y="622" font-size="34" font-weight="700" fill="#00b368">Governance</text>
    <text x="120" y="650" font-size="18" opacity="0.85">Featured image</text>
  </g>
</svg>
