<svg xmlns="http://www.w3.org/2000/svg" width="1200" height="675" viewBox="0 0 1200 675">
  <defs>
    <linearGradient id="g" x1="0" y1="0" x2="1" y2="1">
      <stop offset="0" stop-color="#00b368"/>
      <stop offset="0.55" stop-color="#e8a020"/>
      <stop offset="1" stop-color="#3ab4f2"/>
    </linearGradient>
    <filter id="s" x="-20%" y="-20%" width="140%" height="140%">
      <feDropShadow dx="0" dy="12" stdDeviation="18" flood-color="#000" flood-opacity="0.35"/>
    </filter>
  </defs>
  <rect width="1200" height="675" fill="#141714"/>
  <circle cx="240" cy="160" r="220" fill="url(#g)" opacity="0.16"/>
  <circle cx="980" cy="560" r="260" fill="url(#g)" opacity="0.10"/>
  <g filter="url(#s)">
    <rect x="96" y="98" width="1008" height="479" rx="22" fill="#1d211b" stroke="#2c312a"/>
    <g transform="translate(140 150)">
      <rect x="0" y="0" width="920" height="90" rx="18" fill="#232820" stroke="#2c312a"/>
      <rect x="22" y="22" width="320" height="14" rx="7" fill="#f8f7f2" opacity="0.75"/>
      <rect x="22" y="48" width="240" height="10" rx="5" fill="#f8f7f2" opacity="0.55"/>
      <g transform="translate(660 22)">
        <rect x="0" y="0" width="238" height="46" rx="12" fill="#008751"/>
        <rect x="16" y="16" width="88" height="14" rx="7" fill="#f8f7f2" opacity="0.9"/>
        <rect x="120" y="16" width="100" height="14" rx="7" fill="#f8f7f2" opacity="0.55"/>
      </g>
    </g>
    <g transform="translate(140 268)">
      <rect x="0" y="0" width="420" height="262" rx="18" fill="#232820" stroke="#2c312a"/>
      <rect x="22" y="22" width="260" height="14" rx="7" fill="#f8f7f2" opacity="0.75"/>
      <g transform="translate(22 64)">
        <rect x="0" y="0" width="376" height="160" rx="14" fill="#141714" stroke="#2c312a"/>
        <path d="M76 106l44-44 44 44" fill="none" stroke="#00b368" stroke-width="7" stroke-linecap="round" stroke-linejoin="round"/>
        <path d="M216 54h96" stroke="#e8a020" stroke-width="7" stroke-linecap="round" opacity="0.9"/>
        <path d="M216 90h72" stroke="#e8a020" stroke-width="7" stroke-linecap="round" opacity="0.65"/>
      </g>
    </g>
    <g transform="translate(582 268)">
      <rect x="0" y="0" width="478" height="262" rx="18" fill="#232820" stroke="#2c312a"/>
      <rect x="22" y="22" width="320" height="14" rx="7" fill="#f8f7f2" opacity="0.75"/>
      <g transform="translate(22 64)">
        <rect x="0" y="0" width="434" height="48" rx="14" fill="#141714" stroke="#2c312a"/>
        <rect x="18" y="18" width="220" height="12" rx="6" fill="#f8f7f2" opacity="0.55"/>
        <rect x="0" y="68" width="434" height="48" rx="14" fill="#141714" stroke="#2c312a"/>
        <rect x="18" y="86" width="260" height="12" rx="6" fill="#f8f7f2" opacity="0.55"/>
        <rect x="0" y="136" width="434" height="48" rx="14" fill="#141714" stroke="#2c312a"/>
        <rect x="18" y="154" width="180" height="12" rx="6" fill="#f8f7f2" opacity="0.55"/>
      </g>
    </g>
  </g>
  <g font-family="system-ui, -apple-system, Segoe UI, Roboto, Arial" fill="#f8f7f2">
    <text x="120" y="622" font-size="34" font-weight="700">NaijaRate</text>
    <text x="285" y="622" font-size="34" font-weight="700" fill="#00b368">Product Update</text>
    <text x="120" y="650" font-size="18" opacity="0.85">Featured image</text>
  </g>
</svg>
