<svg xmlns="http://www.w3.org/2000/svg" width="1200" height="675" viewBox="0 0 1200 675">
  <defs>
    <linearGradient id="g" x1="0" y1="0" x2="1" y2="1">
      <stop offset="0" stop-color="#7c6af7"/>
      <stop offset="0.55" stop-color="#00b368"/>
      <stop offset="1" stop-color="#e8a020"/>
    </linearGradient>
    <filter id="s" x="-20%" y="-20%" width="140%" height="140%">
      <feDropShadow dx="0" dy="12" stdDeviation="18" flood-color="#000" flood-opacity="0.35"/>
    </filter>
  </defs>
  <rect width="1200" height="675" fill="#141714"/>
  <rect x="0" y="0" width="1200" height="675" fill="url(#g)" opacity="0.12"/>
  <g filter="url(#s)">
    <rect x="96" y="98" width="1008" height="479" rx="22" fill="#1d211b" stroke="#2c312a"/>
    <g transform="translate(140 150)">
      <rect x="0" y="0" width="920" height="380" rx="18" fill="#232820" stroke="#2c312a"/>
      <rect x="22" y="22" width="340" height="14" rx="7" fill="#f8f7f2" opacity="0.75"/>
      <rect x="22" y="48" width="240" height="10" rx="5" fill="#f8f7f2" opacity="0.55"/>
      <g transform="translate(22 92)">
        <rect x="0" y="0" width="876" height="72" rx="16" fill="#141714" stroke="#2c312a"/>
        <rect x="22" y="24" width="520" height="12" rx="6" fill="#f8f7f2" opacity="0.55"/>
        <rect x="0" y="92" width="876" height="72" rx="16" fill="#141714" stroke="#2c312a"/>
        <rect x="22" y="116" width="620" height="12" rx="6" fill="#f8f7f2" opacity="0.55"/>
        <rect x="0" y="184" width="876" height="72" rx="16" fill="#141714" stroke="#2c312a"/>
        <rect x="22" y="208" width="460" height="12" rx="6" fill="#f8f7f2" opacity="0.55"/>
        <rect x="0" y="276" width="876" height="72" rx="16" fill="#141714" stroke="#2c312a"/>
        <rect x="22" y="300" width="560" height="12" rx="6" fill="#f8f7f2" opacity="0.55"/>
        <g transform="translate(720 10)">
          <rect x="0" y="0" width="146" height="52" rx="14" fill="#008751"/>
          <path d="M44 34l18-18 8 8 28-28" fill="none" stroke="#f8f7f2" stroke-width="6" stroke-linecap="round" stroke-linejoin="round"/>
        </g>
      </g>
    </g>
  </g>
  <g font-family="system-ui, -apple-system, Segoe UI, Roboto, Arial" fill="#f8f7f2">
    <text x="120" y="622" font-size="34" font-weight="700">NaijaRate</text>
    <text x="285" y="622" font-size="34" font-weight="700" fill="#7c6af7">Editorial</text>
    <text x="120" y="650" font-size="18" opacity="0.85">Featured image</text>
  </g>
</svg>
