<svg xmlns="http://www.w3.org/2000/svg" width="1200" height="675" viewBox="0 0 1200 675">
  <defs>
    <linearGradient id="g" x1="0" y1="0" x2="1" y2="1">
      <stop offset="0" stop-color="#00b368"/>
      <stop offset="0.52" stop-color="#e8a020"/>
      <stop offset="1" stop-color="#e84040"/>
    </linearGradient>
    <filter id="s" x="-20%" y="-20%" width="140%" height="140%">
      <feDropShadow dx="0" dy="12" stdDeviation="18" flood-color="#000" flood-opacity="0.35"/>
    </filter>
  </defs>
  <rect width="1200" height="675" fill="#141714"/>
  <rect x="-60" y="-60" width="1320" height="795" rx="60" fill="url(#g)" opacity="0.14"/>
  <g filter="url(#s)">
    <rect x="96" y="98" width="1008" height="479" rx="22" fill="#1d211b" stroke="#2c312a"/>
    <g transform="translate(140 148)">
      <rect x="0" y="0" width="520" height="380" rx="18" fill="#232820" stroke="#2c312a"/>
      <rect x="22" y="22" width="300" height="14" rx="7" fill="#f8f7f2" opacity="0.75"/>
      <rect x="22" y="48" width="210" height="10" rx="5" fill="#f8f7f2" opacity="0.55"/>
      <g transform="translate(22 92)">
        <rect x="0" y="0" width="476" height="240" rx="14" fill="#141714" stroke="#2c312a"/>
        <path d="M106 190l66-110 66 110" fill="none" stroke="#00b368" stroke-width="7" stroke-linecap="round" stroke-linejoin="round"/>
        <path d="M144 80h56" stroke="#00b368" stroke-width="7" stroke-linecap="round"/>
        <path d="M96 144h152" stroke="#e8a020" stroke-width="6" stroke-linecap="round" opacity="0.85"/>
        <path d="M116 166h112" stroke="#e8a020" stroke-width="6" stroke-linecap="round" opacity="0.65"/>
        <path d="M296 76c44 0 80 36 80 80s-36 80-80 80-80-36-80-80 36-80 80-80z" fill="none" stroke="#e84040" stroke-width="7" opacity="0.9"/>
        <path d="M280 132h32l-22 46h22" fill="none" stroke="#e84040" stroke-width="7" stroke-linecap="round" stroke-linejoin="round"/>
      </g>
    </g>
    <g transform="translate(692 148)">
      <rect x="0" y="0" width="368" height="380" rx="18" fill="#232820" stroke="#2c312a"/>
      <g transform="translate(22 24)">
        <rect x="0" y="0" width="320" height="14" rx="7" fill="#f8f7f2" opacity="0.75"/>
        <g transform="translate(0 42)">
          <rect x="0" y="0" width="324" height="52" rx="14" fill="#141714" stroke="#2c312a"/>
          <rect x="18" y="18" width="120" height="14" rx="7" fill="#2c312a"/>
          <rect x="154" y="18" width="152" height="14" rx="7" fill="#00b368"/>
        </g>
        <g transform="translate(0 112)">
          <rect x="0" y="0" width="324" height="52" rx="14" fill="#141714" stroke="#2c312a"/>
          <rect x="18" y="18" width="120" height="14" rx="7" fill="#2c312a"/>
          <rect x="154" y="18" width="120" height="14" rx="7" fill="#e8a020"/>
        </g>
        <g transform="translate(0 182)">
          <rect x="0" y="0" width="324" height="52" rx="14" fill="#141714" stroke="#2c312a"/>
          <rect x="18" y="18" width="120" height="14" rx="7" fill="#2c312a"/>
          <rect x="154" y="18" width="92" height="14" rx="7" fill="#e84040"/>
        </g>
        <g transform="translate(0 252)">
          <rect x="0" y="0" width="324" height="104" rx="14" fill="#141714" stroke="#2c312a"/>
          <rect x="18" y="18" width="260" height="12" rx="6" fill="#f8f7f2" opacity="0.55"/>
          <rect x="18" y="44" width="240" height="10" rx="5" fill="#f8f7f2" opacity="0.42"/>
          <rect x="18" y="68" width="180" height="10" rx="5" fill="#f8f7f2" opacity="0.42"/>
        </g>
      </g>
    </g>
  </g>
  <g font-family="system-ui, -apple-system, Segoe UI, Roboto, Arial" fill="#f8f7f2">
    <text x="120" y="622" font-size="34" font-weight="700">NaijaRate</text>
    <text x="285" y="622" font-size="34" font-weight="700" fill="#e8a020">Power Sector</text>
    <text x="120" y="650" font-size="18" opacity="0.85">Featured image</text>
  </g>
</svg>
