<svg xmlns="http://www.w3.org/2000/svg" width="1200" height="675" viewBox="0 0 1200 675">
  <defs>
    <linearGradient id="g" x1="0" y1="0" x2="1" y2="1">
      <stop offset="0" stop-color="#3ab4f2"/>
      <stop offset="0.55" stop-color="#00b368"/>
      <stop offset="1" stop-color="#e8a020"/>
    </linearGradient>
    <filter id="s" x="-20%" y="-20%" width="140%" height="140%">
      <feDropShadow dx="0" dy="12" stdDeviation="18" flood-color="#000" flood-opacity="0.35"/>
    </filter>
  </defs>
  <rect width="1200" height="675" fill="#141714"/>
  <circle cx="1020" cy="120" r="220" fill="url(#g)" opacity="0.18"/>
  <circle cx="220" cy="600" r="260" fill="url(#g)" opacity="0.14"/>
  <g filter="url(#s)">
    <rect x="96" y="98" width="1008" height="479" rx="22" fill="#1d211b" stroke="#2c312a"/>
    <g transform="translate(140 148)">
      <rect x="0" y="0" width="920" height="70" rx="16" fill="#232820" stroke="#2c312a"/>
      <rect x="22" y="18" width="360" height="14" rx="7" fill="#f8f7f2" opacity="0.8"/>
      <rect x="22" y="40" width="260" height="10" rx="5" fill="#f8f7f2" opacity="0.55"/>
      <g transform="translate(650 16)">
        <rect x="0" y="0" width="240" height="38" rx="10" fill="#141714" stroke="#2c312a"/>
        <path d="M22 20h62l-10 10H32z" fill="#00b368"/>
        <rect x="104" y="12" width="118" height="14" rx="7" fill="#f8f7f2" opacity="0.72"/>
      </g>
    </g>
    <g transform="translate(140 246)">
      <rect x="0" y="0" width="420" height="280" rx="18" fill="#232820" stroke="#2c312a"/>
      <rect x="22" y="22" width="260" height="14" rx="7" fill="#f8f7f2" opacity="0.75"/>
      <g transform="translate(22 64)">
        <rect x="0" y="0" width="376" height="10" rx="5" fill="#2c312a"/>
        <rect x="0" y="0" width="270" height="10" rx="5" fill="#3ab4f2"/>
        <rect x="0" y="30" width="376" height="10" rx="5" fill="#2c312a"/>
        <rect x="0" y="30" width="220" height="10" rx="5" fill="#00b368"/>
        <rect x="0" y="60" width="376" height="10" rx="5" fill="#2c312a"/>
        <rect x="0" y="60" width="310" height="10" rx="5" fill="#e8a020"/>
        <rect x="0" y="90" width="376" height="10" rx="5" fill="#2c312a"/>
        <rect x="0" y="90" width="180" height="10" rx="5" fill="#00b368" opacity="0.9"/>
      </g>
      <g transform="translate(22 190)">
        <rect x="0" y="0" width="120" height="44" rx="10" fill="#008751"/>
        <rect x="140" y="0" width="120" height="44" rx="10" fill="#2c312a"/>
        <rect x="280" y="0" width="120" height="44" rx="10" fill="#2c312a"/>
      </g>
    </g>
    <g transform="translate(582 246)">
      <rect x="0" y="0" width="478" height="280" rx="18" fill="#232820" stroke="#2c312a"/>
      <rect x="22" y="22" width="320" height="14" rx="7" fill="#f8f7f2" opacity="0.75"/>
      <g transform="translate(22 64)">
        <path d="M40 150c70-90 130-110 200-40s120 60 194-10" fill="none" stroke="#00b368" stroke-width="6"/>
        <path d="M40 170c70-70 140-90 210-20s120 60 184-6" fill="none" stroke="#e8a020" stroke-width="6" opacity="0.9"/>
        <path d="M40 190c80-50 150-60 220 10s110 70 174 30" fill="none" stroke="#3ab4f2" stroke-width="6" opacity="0.9"/>
        <circle cx="40" cy="190" r="8" fill="#3ab4f2"/>
        <circle cx="240" cy="140" r="8" fill="#00b368"/>
        <circle cx="434" cy="142" r="8" fill="#e8a020"/>
      </g>
    </g>
  </g>
  <g font-family="system-ui, -apple-system, Segoe UI, Roboto, Arial" fill="#f8f7f2">
    <text x="120" y="622" font-size="34" font-weight="700">NaijaRate</text>
    <text x="285" y="622" font-size="34" font-weight="700" fill="#3ab4f2">Election Watch</text>
    <text x="120" y="650" font-size="18" opacity="0.85">Featured image</text>
  </g>
</svg>
