<svg xmlns="http://www.w3.org/2000/svg" width="1200" height="675" viewBox="0 0 1200 675">
  <defs>
    <linearGradient id="g" x1="0" y1="0" x2="1" y2="1">
      <stop offset="0" stop-color="#00b368"/>
      <stop offset="0.55" stop-color="#3ab4f2"/>
      <stop offset="1" stop-color="#7c6af7"/>
    </linearGradient>
    <filter id="s" x="-20%" y="-20%" width="140%" height="140%">
      <feDropShadow dx="0" dy="12" stdDeviation="18" flood-color="#000" flood-opacity="0.35"/>
    </filter>
  </defs>
  <rect width="1200" height="675" fill="#141714"/>
  <rect x="0" y="0" width="1200" height="675" fill="url(#g)" opacity="0.12"/>
  <g filter="url(#s)">
    <rect x="96" y="98" width="1008" height="479" rx="22" fill="#1d211b" stroke="#2c312a"/>
    <g transform="translate(140 150)">
      <rect x="0" y="0" width="480" height="380" rx="18" fill="#232820" stroke="#2c312a"/>
      <rect x="22" y="22" width="260" height="14" rx="7" fill="#f8f7f2" opacity="0.75"/>
      <rect x="22" y="48" width="210" height="10" rx="5" fill="#f8f7f2" opacity="0.55"/>
      <g transform="translate(22 92)">
        <rect x="0" y="0" width="436" height="78" rx="16" fill="#141714" stroke="#2c312a"/>
        <circle cx="42" cy="39" r="20" fill="#00b368"/>
        <rect x="78" y="22" width="230" height="12" rx="6" fill="#f8f7f2" opacity="0.58"/>
        <rect x="78" y="44" width="170" height="10" rx="5" fill="#f8f7f2" opacity="0.42"/>
        <rect x="0" y="96" width="436" height="78" rx="16" fill="#141714" stroke="#2c312a"/>
        <circle cx="42" cy="135" r="20" fill="#3ab4f2"/>
        <rect x="78" y="118" width="260" height="12" rx="6" fill="#f8f7f2" opacity="0.58"/>
        <rect x="78" y="140" width="140" height="10" rx="5" fill="#f8f7f2" opacity="0.42"/>
        <rect x="0" y="192" width="436" height="78" rx="16" fill="#141714" stroke="#2c312a"/>
        <circle cx="42" cy="231" r="20" fill="#7c6af7"/>
        <rect x="78" y="214" width="200" height="12" rx="6" fill="#f8f7f2" opacity="0.58"/>
        <rect x="78" y="236" width="240" height="10" rx="5" fill="#f8f7f2" opacity="0.42"/>
      </g>
    </g>
    <g transform="translate(644 150)">
      <rect x="0" y="0" width="416" height="380" rx="18" fill="#232820" stroke="#2c312a"/>
      <g transform="translate(22 26)">
        <rect x="0" y="0" width="300" height="14" rx="7" fill="#f8f7f2" opacity="0.75"/>
        <rect x="0" y="24" width="220" height="10" rx="5" fill="#f8f7f2" opacity="0.55"/>
        <g transform="translate(0 74)">
          <rect x="0" y="0" width="372" height="280" rx="14" fill="#141714" stroke="#2c312a"/>
          <path d="M78 90c0-32 26-58 58-58s58 26 58 58-26 58-58 58-58-26-58-58z" fill="#00b368" opacity="0.18"/>
          <path d="M172 164c0-26 22-48 48-48s48 22 48 48-22 48-48 48-48-22-48-48z" fill="#3ab4f2" opacity="0.18"/>
          <path d="M70 214c0-22 18-40 40-40s40 18 40 40-18 40-40 40-40-18-40-40z" fill="#7c6af7" opacity="0.18"/>
          <path d="M122 122l74 74" stroke="#00b368" stroke-width="6" stroke-linecap="round" opacity="0.9"/>
          <path d="M112 232l118-54" stroke="#3ab4f2" stroke-width="6" stroke-linecap="round" opacity="0.9"/>
          <path d="M190 90l74 74" stroke="#7c6af7" stroke-width="6" stroke-linecap="round" opacity="0.9"/>
        </g>
      </g>
    </g>
  </g>
  <g font-family="system-ui, -apple-system, Segoe UI, Roboto, Arial" fill="#f8f7f2">
    <text x="120" y="622" font-size="34" font-weight="700">NaijaRate</text>
    <text x="285" y="622" font-size="34" font-weight="700" fill="#3ab4f2">Community</text>
    <text x="120" y="650" font-size="18" opacity="0.85">Featured image</text>
  </g>
</svg>
