<svg xmlns="http://www.w3.org/2000/svg" width="1200" height="675" viewBox="0 0 1200 675">
  <defs>
    <linearGradient id="g" x1="0" y1="0" x2="1" y2="1">
      <stop offset="0" stop-color="#e8a020"/>
      <stop offset="0.5" stop-color="#00b368"/>
      <stop offset="1" stop-color="#3ab4f2"/>
    </linearGradient>
    <filter id="s" x="-20%" y="-20%" width="140%" height="140%">
      <feDropShadow dx="0" dy="12" stdDeviation="18" flood-color="#000" flood-opacity="0.35"/>
    </filter>
  </defs>
  <rect width="1200" height="675" fill="#141714"/>
  <path d="M0 180c220-140 460-140 680 0s520 140 520 140v355H0z" fill="url(#g)" opacity="0.14"/>
  <g filter="url(#s)">
    <rect x="96" y="98" width="1008" height="479" rx="22" fill="#1d211b" stroke="#2c312a"/>
    <g transform="translate(140 148)">
      <rect x="0" y="0" width="520" height="380" rx="18" fill="#232820" stroke="#2c312a"/>
      <rect x="22" y="22" width="260" height="14" rx="7" fill="#f8f7f2" opacity="0.75"/>
      <g transform="translate(22 64)">
        <rect x="0" y="0" width="476" height="12" rx="6" fill="#2c312a"/>
        <rect x="0" y="0" width="330" height="12" rx="6" fill="#e8a020"/>
        <rect x="0" y="32" width="476" height="12" rx="6" fill="#2c312a"/>
        <rect x="0" y="32" width="260" height="12" rx="6" fill="#00b368"/>
        <rect x="0" y="64" width="476" height="12" rx="6" fill="#2c312a"/>
        <rect x="0" y="64" width="410" height="12" rx="6" fill="#3ab4f2"/>
        <rect x="0" y="96" width="476" height="12" rx="6" fill="#2c312a"/>
        <rect x="0" y="96" width="190" height="12" rx="6" fill="#00b368" opacity="0.85"/>
      </g>
      <g transform="translate(22 210)">
        <rect x="0" y="0" width="476" height="140" rx="14" fill="#141714" stroke="#2c312a"/>
        <rect x="18" y="18" width="260" height="12" rx="6" fill="#f8f7f2" opacity="0.65"/>
        <rect x="18" y="48" width="360" height="10" rx="5" fill="#f8f7f2" opacity="0.45"/>
        <rect x="18" y="74" width="320" height="10" rx="5" fill="#f8f7f2" opacity="0.45"/>
        <rect x="18" y="100" width="290" height="10" rx="5" fill="#f8f7f2" opacity="0.45"/>
      </g>
    </g>
    <g transform="translate(692 148)">
      <rect x="0" y="0" width="368" height="380" rx="18" fill="#232820" stroke="#2c312a"/>
      <g transform="translate(22 26)">
        <rect x="0" y="0" width="324" height="14" rx="7" fill="#f8f7f2" opacity="0.75"/>
        <rect x="0" y="26" width="220" height="10" rx="5" fill="#f8f7f2" opacity="0.55"/>
        <g transform="translate(0 78)">
          <rect x="0" y="0" width="324" height="260" rx="14" fill="#141714" stroke="#2c312a"/>
          <path d="M62 192l58-70 48 40 72-98 60 62" fill="none" stroke="#00b368" stroke-width="7" stroke-linecap="round" stroke-linejoin="round"/>
          <circle cx="62" cy="192" r="8" fill="#00b368"/>
          <circle cx="120" cy="122" r="8" fill="#e8a020"/>
          <circle cx="168" cy="162" r="8" fill="#3ab4f2"/>
          <circle cx="240" cy="64" r="8" fill="#00b368"/>
          <circle cx="300" cy="126" r="8" fill="#e8a020"/>
        </g>
      </g>
    </g>
  </g>
  <g font-family="system-ui, -apple-system, Segoe UI, Roboto, Arial" fill="#f8f7f2">
    <text x="120" y="622" font-size="34" font-weight="700">NaijaRate</text>
    <text x="285" y="622" font-size="34" font-weight="700" fill="#e8a020">Public Finance</text>
    <text x="120" y="650" font-size="18" opacity="0.85">Featured image</text>
  </g>
</svg>
